# Blender v2.92.0 OBJ File: ''
# www.blender.org
mtllib test.mtl
o Cube
v 1.007260 0.856641 -0.571767
v 1.007260 -0.847703 -0.878145
v 1.017881 0.862609 0.302339
v 1.054773 -0.874401 0.810034
v -1.528813 0.882076 -0.922445
v -0.741523 -0.872831 -0.922445
v -0.756790 0.897343 0.847729
v -0.741523 -0.872831 0.832462
v -1.465488 0.521369 -0.621166
v 1.916934 0.863130 -1.177447
v 1.916934 -0.841214 -1.483826
v 1.927556 0.869099 -0.303341
v 1.964448 -0.867912 0.204354
v 3.054927 0.873824 -1.076811
v 3.054927 -0.830520 -1.383190
v 3.065549 0.879793 -0.202705
v 3.102441 -0.857218 0.304990
vt 0.625000 0.500000
vt 0.875000 0.500000
vt 0.875000 0.750000
vt 0.625000 0.750000
vt 0.375000 0.750000
vt 0.625000 1.000000
vt 0.375000 1.000000
vt 0.375000 0.000000
vt 0.625000 0.000000
vt 0.625000 0.250000
vt 0.375000 0.250000
vt 0.125000 0.500000
vt 0.375000 0.500000
vt 0.125000 0.750000
vt 0.625000 0.750000
vt 0.625000 0.500000
vt 0.375000 0.750000
vt 0.375000 0.500000
vt 0.375000 0.500000
vt 0.375000 0.750000
vt 0.625000 0.500000
vt 0.625000 0.750000
vn 0.0134 0.9998 -0.0120
vn 0.1569 0.1396 0.9777
vn -0.9532 -0.2179 0.2097
vn 0.0067 -0.9999 -0.0078
vn -0.0116 0.9999 -0.0067
vn 0.0913 0.1084 -0.9899
vn 0.0108 -0.9998 -0.0161
vn 0.5358 0.2473 0.8073
vn -0.5488 0.1479 -0.8227
vn -0.0033 -0.9999 -0.0157
vn 0.9997 0.0094 -0.0226
vn -0.0872 0.2778 0.9567
vn -0.0088 0.9999 -0.0067
vn 0.0851 0.1763 -0.9807
usemtl Material.001
s off
f 1/1/1 5/2/1 7/3/1 3/4/1
f 4/5/2 3/4/2 7/6/2 8/7/2
f 8/8/3 7/9/3 5/10/3 6/11/3
f 6/12/4 2/13/4 4/5/4 8/14/4
f 1/1/5 3/4/5 12/15/5 10/16/5
f 6/11/6 5/10/6 1/1/6 2/13/6
f 13/17/7 11/18/7 15/19/7 17/20/7
f 3/4/8 4/5/8 13/17/8 12/15/8
f 2/13/9 1/1/9 10/16/9 11/18/9
f 4/5/10 2/13/10 11/18/10 13/17/10
f 15/19/11 14/21/11 16/22/11 17/20/11
f 12/15/12 13/17/12 17/20/12 16/22/12
f 10/16/13 12/15/13 16/22/13 14/21/13
f 11/18/14 10/16/14 14/21/14 15/19/14
l 5 9
